<mxfile host="app.diagrams.net" agent="Mozilla/5.0 (X11; Ubuntu; Linux x86_64; rv:132.0) Gecko/20100101 Firefox/132.0" version="24.8.3">
  <diagram name="Page-1" id="2YBvvXClWsGukQMizWep">
    <mxGraphModel dx="797" dy="423" grid="1" gridSize="10" guides="1" tooltips="1" connect="1" arrows="1" fold="1" page="1" pageScale="1" pageWidth="850" pageHeight="1100" math="0" shadow="0">
      <root>
        <mxCell id="0" />
        <mxCell id="1" parent="0" />
        <mxCell id="aM9ryv3xv72pqoxQDRHE-1" value="ADMIN" style="shape=umlLifeline;perimeter=lifelinePerimeter;whiteSpace=wrap;html=1;container=0;dropTarget=0;collapsible=0;recursiveResize=0;outlineConnect=0;portConstraint=eastwest;newEdgeStyle={&quot;edgeStyle&quot;:&quot;elbowEdgeStyle&quot;,&quot;elbow&quot;:&quot;vertical&quot;,&quot;curved&quot;:0,&quot;rounded&quot;:0};" parent="1" vertex="1">
          <mxGeometry x="40" y="40" width="100" height="560" as="geometry" />
        </mxCell>
        <mxCell id="aM9ryv3xv72pqoxQDRHE-2" value="" style="html=1;points=[];perimeter=orthogonalPerimeter;outlineConnect=0;targetShapes=umlLifeline;portConstraint=eastwest;newEdgeStyle={&quot;edgeStyle&quot;:&quot;elbowEdgeStyle&quot;,&quot;elbow&quot;:&quot;vertical&quot;,&quot;curved&quot;:0,&quot;rounded&quot;:0};" parent="aM9ryv3xv72pqoxQDRHE-1" vertex="1">
          <mxGeometry x="45" y="70" width="10" height="390" as="geometry" />
        </mxCell>
        <mxCell id="MZ6fRMqFwM1R9yL-PDOg-14" value="" style="group" parent="1" vertex="1" connectable="0">
          <mxGeometry x="320" y="40" width="100" height="560" as="geometry" />
        </mxCell>
        <mxCell id="aM9ryv3xv72pqoxQDRHE-5" value="SYSTEM" style="shape=umlLifeline;perimeter=lifelinePerimeter;whiteSpace=wrap;html=1;container=0;dropTarget=0;collapsible=0;recursiveResize=0;outlineConnect=0;portConstraint=eastwest;newEdgeStyle={&quot;edgeStyle&quot;:&quot;elbowEdgeStyle&quot;,&quot;elbow&quot;:&quot;vertical&quot;,&quot;curved&quot;:0,&quot;rounded&quot;:0};" parent="MZ6fRMqFwM1R9yL-PDOg-14" vertex="1">
          <mxGeometry width="100" height="560" as="geometry" />
        </mxCell>
        <mxCell id="aM9ryv3xv72pqoxQDRHE-6" value="" style="html=1;points=[];perimeter=orthogonalPerimeter;outlineConnect=0;targetShapes=umlLifeline;portConstraint=eastwest;newEdgeStyle={&quot;edgeStyle&quot;:&quot;elbowEdgeStyle&quot;,&quot;elbow&quot;:&quot;vertical&quot;,&quot;curved&quot;:0,&quot;rounded&quot;:0};" parent="MZ6fRMqFwM1R9yL-PDOg-14" vertex="1">
          <mxGeometry x="45" y="80" width="10" height="400" as="geometry" />
        </mxCell>
        <mxCell id="MZ6fRMqFwM1R9yL-PDOg-7" value="3.2 Add profile&lt;br&gt;on DB" style="html=1;verticalAlign=bottom;endArrow=block;curved=0;rounded=0;" parent="MZ6fRMqFwM1R9yL-PDOg-14" edge="1">
          <mxGeometry x="0.2152" width="80" relative="1" as="geometry">
            <mxPoint x="55" y="409" as="sourcePoint" />
            <mxPoint x="55" y="459" as="targetPoint" />
            <Array as="points">
              <mxPoint x="100" y="409" />
              <mxPoint x="100" y="459" />
            </Array>
            <mxPoint as="offset" />
          </mxGeometry>
        </mxCell>
        <mxCell id="MZ6fRMqFwM1R9yL-PDOg-13" value="3.3 Creation approval" style="html=1;verticalAlign=bottom;endArrow=block;edgeStyle=elbowEdgeStyle;elbow=vertical;curved=0;rounded=0;" parent="MZ6fRMqFwM1R9yL-PDOg-14" edge="1">
          <mxGeometry x="0.4691" relative="1" as="geometry">
            <mxPoint x="-215" y="459" as="sourcePoint" />
            <Array as="points">
              <mxPoint x="50" y="459" />
            </Array>
            <mxPoint x="-225" y="459" as="targetPoint" />
            <mxPoint as="offset" />
          </mxGeometry>
        </mxCell>
        <mxCell id="MZ6fRMqFwM1R9yL-PDOg-8" value="3.1 Validate form" style="html=1;verticalAlign=bottom;endArrow=block;edgeStyle=elbowEdgeStyle;elbow=vertical;curved=0;rounded=0;" parent="MZ6fRMqFwM1R9yL-PDOg-14" edge="1">
          <mxGeometry relative="1" as="geometry">
            <mxPoint x="-225" y="409" as="sourcePoint" />
            <Array as="points">
              <mxPoint x="-135" y="409" />
            </Array>
            <mxPoint x="45" y="409" as="targetPoint" />
            <mxPoint as="offset" />
          </mxGeometry>
        </mxCell>
        <mxCell id="MZ6fRMqFwM1R9yL-PDOg-11" value="2.2 Highlighted required fields" style="html=1;verticalAlign=bottom;endArrow=block;edgeStyle=elbowEdgeStyle;elbow=vertical;curved=0;rounded=0;dashed=1;" parent="MZ6fRMqFwM1R9yL-PDOg-14" edge="1" source="aM9ryv3xv72pqoxQDRHE-2">
          <mxGeometry x="0.4691" relative="1" as="geometry">
            <mxPoint x="-215" y="379" as="sourcePoint" />
            <Array as="points">
              <mxPoint x="50" y="379" />
            </Array>
            <mxPoint x="-225" y="379" as="targetPoint" />
            <mxPoint as="offset" />
          </mxGeometry>
        </mxCell>
        <mxCell id="MZ6fRMqFwM1R9yL-PDOg-4" value="2.1 Fill in the fields" style="html=1;verticalAlign=bottom;endArrow=block;edgeStyle=elbowEdgeStyle;elbow=vertical;curved=0;rounded=0;" parent="MZ6fRMqFwM1R9yL-PDOg-14" edge="1">
          <mxGeometry relative="1" as="geometry">
            <mxPoint x="-225" y="349" as="sourcePoint" />
            <Array as="points">
              <mxPoint x="-135" y="349" />
            </Array>
            <mxPoint x="45" y="349" as="targetPoint" />
            <mxPoint as="offset" />
          </mxGeometry>
        </mxCell>
        <mxCell id="MZ6fRMqFwM1R9yL-PDOg-2" value="" style="endArrow=classic;html=1;rounded=0;dashed=1;" parent="MZ6fRMqFwM1R9yL-PDOg-14" edge="1">
          <mxGeometry width="50" height="50" relative="1" as="geometry">
            <mxPoint x="45" y="309" as="sourcePoint" />
            <mxPoint x="-225" y="309" as="targetPoint" />
          </mxGeometry>
        </mxCell>
        <mxCell id="MZ6fRMqFwM1R9yL-PDOg-3" value="1.3 Send form" style="edgeLabel;html=1;align=center;verticalAlign=middle;resizable=0;points=[];" parent="MZ6fRMqFwM1R9yL-PDOg-2" vertex="1" connectable="0">
          <mxGeometry x="-0.3143" y="1" relative="1" as="geometry">
            <mxPoint x="-27" y="-11" as="offset" />
          </mxGeometry>
        </mxCell>
        <mxCell id="aM9ryv3xv72pqoxQDRHE-7" value="1.1 Click-on Create student profile" style="html=1;verticalAlign=bottom;endArrow=block;edgeStyle=elbowEdgeStyle;elbow=vertical;curved=0;rounded=0;" parent="MZ6fRMqFwM1R9yL-PDOg-14" edge="1">
          <mxGeometry x="0.0013" relative="1" as="geometry">
            <mxPoint x="-225" y="279" as="sourcePoint" />
            <Array as="points">
              <mxPoint x="-140" y="279" />
            </Array>
            <mxPoint as="offset" />
            <mxPoint x="45" y="279" as="targetPoint" />
          </mxGeometry>
        </mxCell>
        <mxCell id="v0MgDXDGJ9J9QG9YZ7CU-4" value="&lt;div&gt;Check&lt;/div&gt;&lt;div&gt;Username/Password&lt;/div&gt;" style="html=1;verticalAlign=bottom;endArrow=block;curved=0;rounded=0;" edge="1" parent="MZ6fRMqFwM1R9yL-PDOg-14">
          <mxGeometry x="0.2143" y="10" width="80" relative="1" as="geometry">
            <mxPoint x="55" y="140" as="sourcePoint" />
            <mxPoint x="55" y="190" as="targetPoint" />
            <Array as="points">
              <mxPoint x="100" y="140" />
              <mxPoint x="100" y="190" />
            </Array>
            <mxPoint as="offset" />
          </mxGeometry>
        </mxCell>
        <mxCell id="v0MgDXDGJ9J9QG9YZ7CU-6" value="Redirect /home" style="html=1;verticalAlign=bottom;endArrow=open;dashed=1;endSize=8;curved=0;rounded=0;" edge="1" parent="MZ6fRMqFwM1R9yL-PDOg-14">
          <mxGeometry relative="1" as="geometry">
            <mxPoint x="45" y="220" as="sourcePoint" />
            <mxPoint x="-225" y="220" as="targetPoint" />
            <Array as="points" />
          </mxGeometry>
        </mxCell>
        <mxCell id="v0MgDXDGJ9J9QG9YZ7CU-1" value="Click LogIn" style="html=1;verticalAlign=bottom;endArrow=block;curved=0;rounded=0;" edge="1" parent="1">
          <mxGeometry width="80" relative="1" as="geometry">
            <mxPoint x="95" y="120" as="sourcePoint" />
            <mxPoint x="365" y="120" as="targetPoint" />
          </mxGeometry>
        </mxCell>
        <mxCell id="v0MgDXDGJ9J9QG9YZ7CU-2" value="Connexion form" style="html=1;verticalAlign=bottom;endArrow=open;dashed=1;endSize=8;curved=0;rounded=0;" edge="1" parent="1" source="aM9ryv3xv72pqoxQDRHE-6" target="aM9ryv3xv72pqoxQDRHE-2">
          <mxGeometry relative="1" as="geometry">
            <mxPoint x="360" y="170" as="sourcePoint" />
            <mxPoint x="160" y="210" as="targetPoint" />
            <Array as="points">
              <mxPoint x="320" y="150" />
            </Array>
          </mxGeometry>
        </mxCell>
        <mxCell id="v0MgDXDGJ9J9QG9YZ7CU-3" value="Submit" style="html=1;verticalAlign=bottom;endArrow=block;curved=0;rounded=0;" edge="1" parent="1">
          <mxGeometry width="80" relative="1" as="geometry">
            <mxPoint x="95" y="180" as="sourcePoint" />
            <mxPoint x="365" y="180" as="targetPoint" />
          </mxGeometry>
        </mxCell>
        <mxCell id="v0MgDXDGJ9J9QG9YZ7CU-5" value="Send connexion token" style="html=1;verticalAlign=bottom;endArrow=open;dashed=1;endSize=8;curved=0;rounded=0;" edge="1" parent="1">
          <mxGeometry relative="1" as="geometry">
            <mxPoint x="365" y="229.76" as="sourcePoint" />
            <mxPoint x="95" y="229.76" as="targetPoint" />
            <Array as="points" />
          </mxGeometry>
        </mxCell>
      </root>
    </mxGraphModel>
  </diagram>
</mxfile>
